<?xml version="1.0" encoding="UTF-8"?>
<svg id="Capa_1" data-name="Capa 1" xmlns="http://www.w3.org/2000/svg" viewBox="0 0 2698.17 692.05">
  <defs>
    <style>
      .cls-1 {
        fill: #1d1d1b;
        stroke-width: 0px;
      }
    </style>
  </defs>
  <g>
    <path class="cls-1" d="M588.94,413.85c0-155.46,105.35-276.15,258.76-276.15,168.76,0,258.76,128.87,258.76,316.04h-380.47c10.23,80.8,55.23,130.91,133.98,130.91,54.21,0,85.91-24.55,101.26-64.44h137.05c-19.43,93.07-102.28,171.83-237.29,171.83-173.87,0-272.06-121.71-272.06-278.2ZM728.04,357.6h233.19c-4.09-66.48-48.07-112.5-111.48-112.5-73.64,0-109.44,43.98-121.71,112.5Z"/>
    <path class="cls-1" d="M1443.58,145.89c-61.36,0-97.16,30.68-128.87,90h-3.07v-83.87h-133.98v88.12c19.59,171.38,83.49,174.27,83.4,174.27h-83.4v262.28h139.1v-255.69c0-110.46,65.46-158.53,156.48-149.33h3.07v-121.71c-8.18-3.07-17.38-4.09-32.73-4.09Z"/>
    <path class="cls-1" d="M1956.61,573.78c-.82-1.22-3.66-6.9-3.66-26.88v-230.15c0-82.01-35.57-179.77-205.03-179.77-131.61,0-215.55,72.52-219.05,189.27l125.6,1.8c2.22-57.77,29.56-81.34,94.38-81.34,54.55,0,82.21,19.79,82.21,58.81,0,24.76-13.63,31.16-91.17,42.84l-2.55.38c-98.25,15.23-232.8,36.09-232.8,182.26,0,99.34,72.82,161.05,190.05,161.05,58.5,0,109.67-18.37,150.28-53.57,17.79,32.48,49.53,48.89,94.85,48.89,24.39,0,40.04-5.01,50.94-9.37l16.55-6.62v-99.34s-49.58,2.04-50.61,1.74ZM1711.44,581.39c-64.85,0-73.78-25.12-73.78-52.26,0-44.01,27.32-56.11,114.98-72.33,19.9-3.62,50.87-10.23,79.36-20.42v41.3c0,40.1-32.73,103.72-120.56,103.72Z"/>
    <g>
      <path class="cls-1" d="M374.11,292.53h0-225.81v-143.85C148.3,66.78,81.9.39,0,.39v32.24s0,182.48,0,182.48c0,31.49,3.3,62.94,10.75,93.53,25.27,103.71,71.77,105.78,71.77,105.78,0,0-.06,0-.15,0H0v262.28h148.3v-261.44h225.81v261.44h148.3v-236.59c0-81.51-66.08-147.59-147.59-147.59h-.72Z"/>
      <rect class="cls-1" x="374.11" width="146.16" height="309.12"/>
    </g>
  </g>
  <g>
    <path class="cls-1" d="M2236.94,157.74v14.31h-40.47v105.81h-16.44v-105.81h-40.47v-14.31h97.39Z"/>
    <path class="cls-1" d="M2258.32,157.33h14.72v44.81c3.49-4.42,6.62-7.52,9.4-9.32,4.74-3.11,10.66-4.66,17.74-4.66,12.7,0,21.32,4.45,25.84,13.33,2.45,4.85,3.68,11.59,3.68,20.2v56.17h-15.13v-55.2c0-6.43-.81-11.14-2.45-14.15-2.67-4.79-7.69-7.19-15.04-7.19-6.11,0-11.64,2.1-16.6,6.3-4.96,4.2-7.44,12.13-7.44,23.8v46.44h-14.72v-120.53Z"/>
    <path class="cls-1" d="M2413.93,192.7c5.8,2.91,10.21,6.69,13.25,11.32,2.93,4.42,4.88,9.57,5.85,15.46.87,4.03,1.3,10.46,1.3,19.3h-63.7c.27,8.91,2.35,16.06,6.25,21.44,3.9,5.39,9.92,8.08,18.09,8.08,7.63,0,13.71-2.55,18.25-7.64,2.54-2.96,4.35-6.38,5.4-10.27h14.47c-.38,3.22-1.65,6.8-3.8,10.75-2.15,3.95-4.56,7.18-7.2,9.69-4.44,4.36-9.93,7.3-16.48,8.83-3.51.87-7.49,1.3-11.93,1.3-10.83,0-20.02-3.96-27.55-11.89-7.53-7.93-11.29-19.04-11.29-33.32s3.79-25.48,11.38-34.26,17.5-13.16,29.75-13.16c6.17,0,12.16,1.46,17.96,4.38ZM2419.2,227.08c-.6-6.38-1.97-11.47-4.14-15.29-4-7.09-10.68-10.63-20.03-10.63-6.7,0-12.33,2.44-16.87,7.32-4.54,4.88-6.95,11.08-7.21,18.6h48.24Z"/>
    <path class="cls-1" d="M2149.2,358.7h51.94c14.16,0,24.22,4.2,30.21,12.59,3.51,4.96,5.26,10.69,5.26,17.17,0,7.58-2.15,13.79-6.46,18.64-2.23,2.57-5.45,4.91-9.65,7.03,6.16,2.35,10.76,4.99,13.82,7.93,5.4,5.23,8.09,12.46,8.09,21.67,0,7.74-2.44,14.75-7.32,21.01-7.3,9.38-18.9,14.07-34.8,14.07h-51.1v-120.12ZM2195.06,409.48c6.94,0,12.34-.95,16.2-2.86,6.06-3,9.09-8.39,9.09-16.19s-3.23-13.14-9.67-15.86c-3.64-1.53-9.04-2.29-16.2-2.29h-29.33v37.2h29.91ZM2200.56,464.92c10.07,0,17.25-2.89,21.54-8.66,2.69-3.65,4.04-8.07,4.04-13.25,0-8.72-3.93-14.66-11.8-17.83-4.18-1.69-9.72-2.54-16.59-2.54h-32.6v42.28h35.41Z"/>
    <path class="cls-1" d="M2321.82,393.66c5.8,2.91,10.21,6.69,13.25,11.32,2.93,4.42,4.88,9.57,5.85,15.45.87,4.04,1.3,10.47,1.3,19.3h-63.7c.27,8.91,2.35,16.06,6.25,21.44s9.92,8.08,18.09,8.08c7.63,0,13.71-2.55,18.25-7.64,2.54-2.96,4.35-6.38,5.4-10.27h14.47c-.38,3.22-1.65,6.8-3.8,10.75s-4.56,7.18-7.2,9.69c-4.44,4.36-9.93,7.3-16.48,8.83-3.51.87-7.49,1.3-11.93,1.3-10.83,0-20.02-3.96-27.55-11.9-7.53-7.93-11.29-19.04-11.29-33.32s3.79-25.48,11.38-34.26c7.59-8.78,17.5-13.16,29.75-13.16,6.17,0,12.16,1.46,17.96,4.38ZM2327.09,428.04c-.6-6.38-1.97-11.48-4.14-15.29-4-7.09-10.68-10.63-20.03-10.63-6.7,0-12.33,2.44-16.87,7.32-4.54,4.88-6.95,11.08-7.21,18.6h48.24Z"/>
    <path class="cls-1" d="M2416.17,425.82c3.38-.44,5.64-1.85,6.79-4.25.65-1.31.98-3.2.98-5.66,0-5.04-1.78-8.69-5.34-10.96-3.56-2.27-8.66-3.41-15.3-3.41-7.67,0-13.11,2.08-16.32,6.25-1.8,2.3-2.96,5.73-3.51,10.28h-13.74c.27-10.83,3.77-18.35,10.49-22.59,6.72-4.24,14.53-6.36,23.4-6.36,10.29,0,18.65,1.96,25.07,5.88,6.37,3.93,9.56,10.03,9.56,18.32v50.45c0,1.53.31,2.75.94,3.68.63.92,1.95,1.38,3.96,1.38.65,0,1.39-.04,2.21-.12.82-.08,1.69-.2,2.61-.37v10.87c-2.29.65-4.03,1.07-5.23,1.23-1.2.16-2.84.24-4.91.24-5.07,0-8.75-1.8-11.04-5.39-1.2-1.91-2.04-4.61-2.54-8.1-3,3.92-7.3,7.33-12.92,10.22-5.61,2.89-11.8,4.33-18.56,4.33-8.13,0-14.76-2.46-19.91-7.39-5.16-4.93-7.73-11.09-7.73-18.5,0-8.11,2.54-14.4,7.61-18.87,5.07-4.47,11.72-7.21,19.95-8.25l23.47-2.94ZM2385.18,465.58c3.11,2.45,6.79,3.67,11.04,3.67,5.18,0,10.19-1.2,15.04-3.59,8.18-3.97,12.27-10.47,12.27-19.51v-11.84c-1.8,1.15-4.11,2.1-6.94,2.87-2.83.77-5.6,1.31-8.33,1.64l-8.89,1.14c-5.33.71-9.34,1.82-12.03,3.34-4.56,2.56-6.83,6.64-6.83,12.24,0,4.24,1.55,7.59,4.66,10.03Z"/>
    <path class="cls-1" d="M2485.47,391.25v58.14c0,4.47.69,8.12,2.07,10.96,2.55,5.23,7.3,7.85,14.26,7.85,9.98,0,16.78-4.58,20.39-13.74,1.96-4.91,2.94-11.64,2.94-20.19v-43.01h14.72v87.58h-13.9l.16-12.92c-1.88,3.32-4.2,6.13-6.98,8.43-5.51,4.57-12.2,6.87-20.06,6.87-12.25,0-20.59-4.17-25.03-12.51-2.41-4.47-3.61-10.44-3.61-17.91v-59.53h15.05Z"/>
    <path class="cls-1" d="M2575.2,366.8h14.88v24.45h13.98v12.02h-13.98v57.16c0,3.05,1.03,5.1,3.11,6.13,1.15.6,3.05.9,5.73.9.7,0,1.47-.01,2.29-.05.82-.03,1.77-.12,2.86-.27v11.7c-1.69.49-3.45.84-5.27,1.06s-3.8.33-5.93.33c-6.87,0-11.53-1.76-13.98-5.27-2.45-3.51-3.68-8.08-3.68-13.69v-57.97h-11.86v-12.02h11.86v-24.45Z"/>
    <path class="cls-1" d="M2681.9,391.25h16.27c-2.07,5.62-6.68,18.43-13.82,38.45-5.34,15.05-9.81,27.33-13.41,36.82-8.49,22.33-14.49,35.95-17.97,40.85-3.48,4.9-9.48,7.36-17.97,7.36-2.07,0-3.66-.08-4.78-.25-1.12-.16-2.5-.46-4.13-.9v-13.41c2.56.71,4.41,1.15,5.55,1.31,1.14.16,2.15.24,3.02.24,2.72,0,4.72-.45,6-1.34,1.28-.9,2.35-2,3.23-3.3.27-.44,1.25-2.67,2.94-6.69s2.91-7.02,3.67-8.98l-32.38-90.15h16.68l23.47,71.34,23.63-71.34Z"/>
    <path class="cls-1" d="M2160.24,641.02c.37,6.81,1.92,12.35,4.65,16.6,5.2,7.96,14.36,11.94,27.49,11.94,5.88,0,11.24-.87,16.07-2.61,9.34-3.38,14.02-9.43,14.02-18.16,0-6.54-1.98-11.2-5.94-13.98-4.01-2.72-10.3-5.1-18.86-7.12l-15.76-3.68c-10.3-2.4-17.58-5.04-21.86-7.93-7.39-5.01-11.09-12.51-11.09-22.49,0-10.79,3.63-19.65,10.9-26.58,7.27-6.92,17.56-10.39,30.87-10.39,12.26,0,22.67,3.04,31.24,9.12,8.56,6.08,12.85,15.79,12.85,29.15h-15.29c-.78-6.43-2.46-11.37-5.02-14.8-4.76-6.27-12.83-9.4-24.22-9.4-9.2,0-15.81,2.02-19.84,6.05-4.02,4.04-6.03,8.72-6.03,14.07,0,5.89,2.38,10.2,7.13,12.92,3.12,1.75,10.17,3.92,21.15,6.54l16.32,3.85c7.87,1.85,13.95,4.39,18.22,7.6,7.39,5.62,11.09,13.77,11.09,24.45,0,13.3-4.72,22.81-14.15,28.54-9.44,5.73-20.4,8.59-32.9,8.59-14.57,0-25.97-3.82-34.21-11.45-8.24-7.57-12.28-17.85-12.12-30.82h15.29Z"/>
    <path class="cls-1" d="M2270.67,567.75h14.88v24.45h13.98v12.02h-13.98v57.16c0,3.05,1.03,5.1,3.11,6.13,1.15.6,3.05.9,5.73.9.7,0,1.47-.01,2.29-.05.82-.03,1.77-.12,2.86-.27v11.7c-1.69.49-3.45.84-5.27,1.06s-3.8.33-5.93.33c-6.87,0-11.53-1.76-13.98-5.27-2.45-3.51-3.68-8.08-3.68-13.69v-57.97h-11.86v-12.02h11.86v-24.45Z"/>
    <path class="cls-1" d="M2337.34,592.2v58.14c0,4.47.69,8.12,2.07,10.96,2.55,5.23,7.3,7.85,14.26,7.85,9.98,0,16.78-4.58,20.39-13.74,1.96-4.91,2.94-11.64,2.94-20.19v-43.01h14.72v87.58h-13.9l.16-12.92c-1.88,3.32-4.2,6.13-6.98,8.43-5.51,4.57-12.2,6.87-20.06,6.87-12.25,0-20.59-4.17-25.03-12.51-2.41-4.47-3.61-10.44-3.61-17.91v-59.53h15.05Z"/>
    <path class="cls-1" d="M2472.25,594.9c2.61,1.64,5.57,4.5,8.88,8.58v-44.24h14.15v120.53h-13.25v-12.18c-3.42,5.39-7.47,9.29-12.14,11.69-4.67,2.4-10.02,3.6-16.05,3.6-9.72,0-18.14-4.1-25.26-12.31-7.11-8.2-10.67-19.12-10.67-32.75,0-12.76,3.25-23.81,9.73-33.16,6.49-9.35,15.76-14.02,27.82-14.02,6.68,0,12.27,1.42,16.78,4.25ZM2439.39,660.56c3.96,6.33,10.31,9.49,19.04,9.49,6.78,0,12.35-2.93,16.72-8.79s6.55-14.27,6.55-25.23-2.25-19.26-6.75-24.57-10.06-7.97-16.68-7.97c-7.38,0-13.36,2.84-17.94,8.5-4.58,5.67-6.87,14.01-6.87,25.02,0,9.38,1.98,17.23,5.94,23.55Z"/>
    <path class="cls-1" d="M2525.64,559.66h14.97v16.68h-14.97v-16.68ZM2525.64,592.61h14.97v87.17h-14.97v-87.17Z"/>
    <path class="cls-1" d="M2634.68,600.94c7.74,7.52,11.61,18.57,11.61,33.17s-3.41,25.77-10.23,34.97c-6.82,9.2-17.41,13.8-31.75,13.8-11.96,0-21.46-4.07-28.5-12.21-7.04-8.14-10.55-19.08-10.55-32.8,0-14.71,3.71-26.42,11.12-35.13,7.42-8.71,17.38-13.07,29.88-13.07,11.2,0,20.68,3.76,28.42,11.28ZM2625.54,659.15c3.58-7.38,5.38-15.59,5.38-24.63,0-8.17-1.3-14.81-3.89-19.93-4.09-8.06-11.15-12.09-21.18-12.09-8.9,0-15.36,3.43-19.41,10.29-4.04,6.86-6.06,15.13-6.06,24.82s2.02,17.07,6.06,23.28c4.04,6.21,10.45,9.31,19.25,9.31,9.65,0,16.26-3.69,19.85-11.06Z"/>
  </g>
</svg>